<svg width="88" height="88" viewBox="0 0 88 88" fill="none" xmlns="http://www.w3.org/2000/svg">
<g clip-path="url(#clip0)">
<path d="M86.1277 66.1766L65.8498 83.0344C64.1485 84.1167 61.1071 87.9832 55.1271 87.9832H36.104C34.1456 87.9832 32.1348 87.5193 30.3301 86.6431L10.3107 77.6727L5.15576 62.2073L10.3107 46.7413H25.3813C27.9587 46.7413 30.4335 47.514 32.547 48.9065L44.7649 57.0518H54.302H56.8801C59.7154 57.0518 62.035 59.3714 62.035 62.2073C62.035 65.0426 59.7154 67.3622 56.8801 67.3622C56.8801 67.3622 55.9005 67.3622 54.302 67.3622H33.681C32.2375 67.3622 31.1035 68.4962 31.1035 69.9397C31.1035 71.3832 32.2375 72.5178 33.681 72.5178H61.4166C62.4479 72.5178 62.5506 72.2083 63.0662 71.9505L79.8892 57.9796C82.0034 56.4844 85.0448 56.7939 86.7978 58.9075C88.7052 61.3305 88.2412 64.4236 86.1277 66.1766Z" fill="#FFCEBF"/>
<path d="M56.8797 67.3622C56.8797 67.3622 55.9001 67.3622 54.3022 67.3622V57.0518H56.8797C59.715 57.0518 62.0346 59.3714 62.0346 62.2073C62.0346 65.0426 59.715 67.3622 56.8797 67.3622Z" fill="#FFBFAB"/>
<path d="M86.1273 66.1766L65.8494 83.0345C64.1481 84.1167 61.1068 87.9832 55.1267 87.9832H54.3022V72.5179H61.4163C62.4475 72.5179 62.5502 72.2083 63.0659 71.9505L79.8888 57.9796C82.003 56.4845 85.0444 56.794 86.7974 58.9075C88.7048 61.3305 88.2409 64.4236 86.1273 66.1766Z" fill="#FFBFAB"/>
<path d="M7.73303 82.8283H2.57745C1.15411 82.8283 0 81.6742 0 80.2502V49.3187C0 47.8954 1.15411 46.7413 2.57745 46.7413H10.3105V80.2502C10.3105 81.6742 9.15637 82.8283 7.73303 82.8283Z" fill="#0A1B30"/>
<path d="M77.501 14.7269V37.5137C77.501 38.4416 76.9854 39.2661 76.2119 39.73L55.5392 51.5873C55.1787 51.7935 54.7148 51.8969 54.3026 51.8969L49.147 38.1227L54.3026 26.1203L65.9014 14.5241L77.1398 13.4385C77.3976 13.8507 77.501 14.2629 77.501 14.7269Z" fill="#F41042"/>
<path d="M54.3026 26.1203V51.8962C53.8897 51.8962 53.4258 51.7935 53.0652 51.5873L32.3926 39.73C31.6191 39.2661 31.1035 38.4409 31.1035 37.5131V14.7269C31.1035 14.2629 31.2069 13.8507 31.4647 13.4378L43.1536 14.7739L54.3026 26.1203Z" fill="#EF5C7C"/>
<path d="M77.1395 13.4378L54.3022 26.1203L31.4644 13.4378C31.7222 13.0773 32.031 12.7167 32.4439 12.5099C32.4439 12.5099 53.1676 0.257812 53.2193 0.257812C53.5798 0.103393 53.941 0 54.3022 0C54.6628 0 55.024 0.103393 55.3845 0.257812C55.4362 0.257812 76.1599 12.5099 76.1599 12.5099C76.5728 12.7167 76.8817 13.0773 77.1395 13.4378Z" fill="#F4B9C6"/>
<path d="M77.1395 13.4378L54.3022 26.1203V0C54.6628 0 55.024 0.103393 55.3845 0.257812C55.4362 0.257812 76.1599 12.5099 76.1599 12.5099C76.5728 12.7167 76.8817 13.0773 77.1395 13.4378Z" fill="#F08AA0"/>
</g>
<defs>
<clipPath id="clip0">
<rect width="88" height="88" fill="white"/>
</clipPath>
</defs>
</svg>
