<svg width="88" height="88" viewBox="0 0 88 88" fill="none" xmlns="http://www.w3.org/2000/svg">
<path d="M46.5781 62.0469V82.6719C46.5781 84.1154 45.4442 85.25 44 85.25C42.5558 85.25 41.4219 84.1154 41.4219 82.6719V62.0469C41.4219 60.6027 42.5558 59.4688 44 59.4688C45.4442 59.4688 46.5781 60.6027 46.5781 62.0469Z" fill="#445973"/>
<path d="M46.5781 62.0469V82.6719C46.5781 84.1154 45.4442 85.25 44 85.25V59.4688C45.4442 59.4688 46.5781 60.6027 46.5781 62.0469Z" fill="#183354"/>
<path d="M88 49.1562V59.4688C88 62.3047 85.6797 64.625 82.8438 64.625H5.15625C2.32031 64.625 0 62.3047 0 59.4688V49.1562C0 46.3203 2.32031 44 5.15625 44L44 38.8438L82.8438 44C85.3185 44 87.4327 45.753 87.8966 48.125C88 48.5372 88 48.8467 88 49.1562Z" fill="#F14D71"/>
<path d="M88 49.1562V59.4688C88 62.3047 85.6797 64.625 82.8438 64.625H44V38.8438L82.8438 44C85.3185 44 87.4327 45.753 87.8966 48.125C88 48.5372 88 48.8467 88 49.1562Z" fill="#F41042"/>
<path d="M15.4639 54.3125C15.4639 55.7365 14.3091 56.8906 12.8857 56.8906C11.4617 56.8906 10.3076 55.7365 10.3076 54.3125C10.3076 52.8885 11.4617 51.7344 12.8857 51.7344C14.3091 51.7344 15.4639 52.8885 15.4639 54.3125Z" fill="white"/>
<path d="M25.7764 54.3125C25.7764 55.7365 24.6216 56.8906 23.1982 56.8906C21.7742 56.8906 20.6201 55.7365 20.6201 54.3125C20.6201 52.8885 21.7742 51.7344 23.1982 51.7344C24.6216 51.7344 25.7764 52.8885 25.7764 54.3125Z" fill="white"/>
<path d="M67.1982 54.3125C67.1982 55.7365 66.0435 56.8906 64.6201 56.8906C63.1961 56.8906 62.042 55.7365 62.042 54.3125C62.042 52.8885 63.1961 51.7344 64.6201 51.7344C66.0435 51.7344 67.1982 52.8885 67.1982 54.3125Z" fill="white"/>
<path d="M77.5107 54.3125C77.5107 55.7365 76.356 56.8906 74.9326 56.8906C73.5086 56.8906 72.3545 55.7365 72.3545 54.3125C72.3545 52.8885 73.5086 51.7344 74.9326 51.7344C76.356 51.7344 77.5107 52.8885 77.5107 54.3125Z" fill="white"/>
<path d="M56.8906 54.3125C56.8906 55.756 55.7567 56.8906 54.3125 56.8906H33.5156C32.0715 56.8906 30.9375 55.756 30.9375 54.3125C30.9375 52.8683 32.0715 51.7344 33.5156 51.7344H54.3125C55.7567 51.7344 56.8906 52.8683 56.8906 54.3125Z" fill="#445973"/>
<path d="M56.8906 54.3125C56.8906 55.756 55.7567 56.8906 54.3125 56.8906H44V51.7344H54.3125C55.7567 51.7344 56.8906 52.8683 56.8906 54.3125Z" fill="#183354"/>
<path d="M88 28.5312V38.8438C88 41.6797 85.6797 44 82.8438 44H5.15625C2.32031 44 0 41.6797 0 38.8438V28.5312C0 25.6953 2.32031 23.375 5.15625 23.375L44 18.2188L82.8438 23.375C85.3185 23.375 87.4327 25.128 87.8966 27.5C88 27.9122 88 28.2217 88 28.5312Z" fill="#F0829A"/>
<path d="M88 28.5312V38.8438C88 41.6797 85.6797 44 82.8438 44H44V18.2188L82.8438 23.375C85.3185 23.375 87.4327 25.128 87.8966 27.5C88 27.9122 88 28.2217 88 28.5312Z" fill="#F14D71"/>
<path d="M15.4639 33.6875C15.4639 35.1115 14.3091 36.2656 12.8857 36.2656C11.4617 36.2656 10.3076 35.1115 10.3076 33.6875C10.3076 32.2635 11.4617 31.1094 12.8857 31.1094C14.3091 31.1094 15.4639 32.2635 15.4639 33.6875Z" fill="white"/>
<path d="M25.7764 33.6875C25.7764 35.1115 24.6216 36.2656 23.1982 36.2656C21.7742 36.2656 20.6201 35.1115 20.6201 33.6875C20.6201 32.2635 21.7742 31.1094 23.1982 31.1094C24.6216 31.1094 25.7764 32.2635 25.7764 33.6875Z" fill="white"/>
<path d="M67.1982 33.6875C67.1982 35.1115 66.0435 36.2656 64.6201 36.2656C63.1961 36.2656 62.042 35.1115 62.042 33.6875C62.042 32.2635 63.1961 31.1094 64.6201 31.1094C66.0435 31.1094 67.1982 32.2635 67.1982 33.6875Z" fill="white"/>
<path d="M77.5107 33.6875C77.5107 35.1115 76.356 36.2656 74.9326 36.2656C73.5086 36.2656 72.3545 35.1115 72.3545 33.6875C72.3545 32.2635 73.5086 31.1094 74.9326 31.1094C76.356 31.1094 77.5107 32.2635 77.5107 33.6875Z" fill="white"/>
<path d="M56.8906 33.6875C56.8906 35.131 55.7567 36.2656 54.3125 36.2656H33.5156C32.0715 36.2656 30.9375 35.131 30.9375 33.6875C30.9375 32.2433 32.0715 31.1094 33.5156 31.1094H54.3125C55.7567 31.1094 56.8906 32.2433 56.8906 33.6875Z" fill="#445973"/>
<path d="M56.8906 33.6875C56.8906 35.131 55.7567 36.2656 54.3125 36.2656H44V31.1094H54.3125C55.7567 31.1094 56.8906 32.2433 56.8906 33.6875Z" fill="#183354"/>
<path d="M88 82.6719C88 84.1154 86.866 85.25 85.4219 85.25H2.57812C1.13397 85.25 0 84.1154 0 82.6719C0 81.2277 1.13397 80.0938 2.57812 80.0938H85.4219C86.866 80.0938 88 81.2277 88 82.6719Z" fill="#445973"/>
<path d="M88 7.90625V18.2188C88 21.0547 85.6797 23.375 82.8438 23.375H5.15625C2.32031 23.375 0 21.0547 0 18.2188V7.90625C0 5.07031 2.32031 2.75 5.15625 2.75H82.8438C85.6797 2.75 88 5.07031 88 7.90625Z" fill="#F14D71"/>
<path d="M88 7.90625V18.2188C88 21.0547 85.6797 23.375 82.8438 23.375H44V2.75H82.8438C85.6797 2.75 88 5.07031 88 7.90625Z" fill="#F41042"/>
<path d="M15.4639 13.0625C15.4639 14.4865 14.3091 15.6406 12.8857 15.6406C11.4617 15.6406 10.3076 14.4865 10.3076 13.0625C10.3076 11.6385 11.4617 10.4844 12.8857 10.4844C14.3091 10.4844 15.4639 11.6385 15.4639 13.0625Z" fill="white"/>
<path d="M25.7764 13.0625C25.7764 14.4865 24.6216 15.6406 23.1982 15.6406C21.7742 15.6406 20.6201 14.4865 20.6201 13.0625C20.6201 11.6385 21.7742 10.4844 23.1982 10.4844C24.6216 10.4844 25.7764 11.6385 25.7764 13.0625Z" fill="white"/>
<path d="M67.1982 13.0625C67.1982 14.4865 66.0435 15.6406 64.6201 15.6406C63.1961 15.6406 62.042 14.4865 62.042 13.0625C62.042 11.6385 63.1961 10.4844 64.6201 10.4844C66.0435 10.4844 67.1982 11.6385 67.1982 13.0625Z" fill="white"/>
<path d="M77.5107 13.0625C77.5107 14.4865 76.356 15.6406 74.9326 15.6406C73.5086 15.6406 72.3545 14.4865 72.3545 13.0625C72.3545 11.6385 73.5086 10.4844 74.9326 10.4844C76.356 10.4844 77.5107 11.6385 77.5107 13.0625Z" fill="white"/>
<path d="M56.8906 13.0625C56.8906 14.506 55.7567 15.6406 54.3125 15.6406H33.5156C32.0715 15.6406 30.9375 14.506 30.9375 13.0625C30.9375 11.6183 32.0715 10.4844 33.5156 10.4844H54.3125C55.7567 10.4844 56.8906 11.6183 56.8906 13.0625Z" fill="#445973"/>
<path d="M56.8906 13.0625C56.8906 14.506 55.7567 15.6406 54.3125 15.6406H44V10.4844H54.3125C55.7567 10.4844 56.8906 11.6183 56.8906 13.0625Z" fill="#183354"/>
<path d="M88 82.6719C88 84.1154 86.866 85.25 85.4219 85.25H44V80.0938H85.4219C86.866 80.0938 88 81.2277 88 82.6719Z" fill="#183354"/>
</svg>
