<svg width="88" height="88" viewBox="0 0 88 88" fill="none" xmlns="http://www.w3.org/2000/svg">
<path d="M88 49.1562L75.2416 49.923L65.8281 59.4688L60.7578 72.5312L65.8281 88L86.5196 78.3844C87.4233 77.9587 88 77.0497 88 76.0513V49.1562Z" fill="#F41042"/>
<path d="M44 49.1562L38.8438 65.2803L44 77.6875L65.8281 88V59.4688L56.8906 50.066L44 49.1562Z" fill="#EF5C7C"/>
<path d="M65.8281 38.8438H49.8008L44 49.1562L65.8281 59.4688L88 49.1562L65.8281 38.8438Z" fill="#F08AA0"/>
<path d="M44 49.1562L31.4135 49.923L22 59.4688L16.9297 72.5312L22 88L44 77.6875V49.1562Z" fill="#F41042"/>
<path d="M0 49.1562V76.0513C0 77.0497 0.576721 77.9587 1.48041 78.3844L22 88V59.4688L13.0625 50.066L0 49.1562Z" fill="#EF5C7C"/>
<path d="M22 38.8438L0 49.1562L22 59.4688L44 49.1562L32.2151 38.4543L22 38.8438Z" fill="#F08AA0"/>
<path d="M65.8281 10.3125L53.3276 11.0792L44 20.625L38.8438 33.6875L44 49.1562L65.8281 38.8438V10.3125Z" fill="#F41042"/>
<path d="M22 10.3125V38.8438L44 49.1562V20.625L34.9766 11.2222L22 10.3125Z" fill="#EF5C7C"/>
<path d="M42.9023 0.245728L22 10.3125L44 20.625L65.8281 10.3125L45.0977 0.245728C44.4028 -0.0819092 43.5972 -0.0819092 42.9023 0.245728Z" fill="#F08AA0"/>
</svg>
