<svg width="88" height="88" viewBox="0 0 88 88" fill="none" xmlns="http://www.w3.org/2000/svg">
<g clip-path="url(#clip0)">
<path d="M84.3906 22.1691V65.8312C84.3906 67.9969 83.1442 69.9696 81.1872 70.9012L46.4193 87.4533C45.6548 87.8183 44.8264 88 44 88C43.1736 88 42.3471 87.8183 41.5826 87.4533L6.81295 70.9012C4.85581 69.9696 3.60938 67.9969 3.60938 65.8312V22.1691C3.60938 21.044 3.94487 19.9712 4.54455 19.0688C5.09558 18.2339 5.87331 17.545 6.81398 17.0993L41.5826 0.546054C43.1117 -0.182181 44.8884 -0.182181 46.4195 0.546054L81.1881 17.0993C82.1288 17.5448 82.9046 18.2339 83.4556 19.0688C84.0551 19.9712 84.3906 21.0439 84.3906 22.1691Z" fill="#F0829A"/>
<path d="M83.4557 19.0688C82.9047 18.2339 82.1288 17.545 81.1882 17.0993L46.4196 0.546054C44.8885 -0.182181 43.112 -0.182181 41.5827 0.546054L41.3438 0.659835L75.8734 17.0993C76.8141 17.5448 77.5901 18.2339 78.141 19.0688C78.7407 19.9712 79.0762 21.0439 79.0762 22.1691V65.8312C79.0762 67.9969 77.8297 69.9696 75.8728 70.9012L41.3438 87.3395L41.5827 87.4533C42.3473 87.8183 43.1739 88 44.0002 88C44.8266 88 45.6551 87.8183 46.4196 87.4533L81.1875 70.9012C83.1444 69.9696 84.3909 67.9969 84.3909 65.8312V22.1691C84.3909 21.0439 84.0554 19.9712 83.4557 19.0688Z" fill="#F14D71"/>
<path d="M44 37.8536V88C43.1736 88 42.3471 87.8183 41.5826 87.4533L6.81295 70.9012C4.85581 69.9696 3.60938 67.9969 3.60938 65.8312V22.1691C3.60938 21.044 3.94487 19.9712 4.54455 19.0688L44 37.8536Z" fill="#F14D71"/>
<path d="M84.3906 22.1691V65.8324C84.3906 67.9742 83.1688 69.9304 81.246 70.874C81.2273 70.8833 81.2066 70.8928 81.1879 70.9021L46.4193 87.4534C45.6548 87.8183 44.8264 88 44 88V37.8536L83.4555 19.0688C84.0551 19.9712 84.3906 21.0439 84.3906 22.1691Z" fill="#F41042"/>
<path d="M83.4555 19.0688L78.9877 21.196C79.0438 21.5141 79.0759 21.839 79.0759 22.1691V65.8324C79.0759 67.9742 77.854 69.9304 75.9313 70.874C75.9125 70.8833 75.8919 70.8928 75.8732 70.9021L44 86.0752V88C44.8264 88 45.6548 87.8183 46.4193 87.4533L81.1879 70.9019C81.2066 70.8926 81.2273 70.8831 81.246 70.8739C83.1688 69.9303 84.3906 67.974 84.3906 65.8323V22.1691C84.3906 21.0439 84.0551 19.9712 83.4555 19.0688Z" fill="#D40734"/>
<path d="M70.3358 53.1422C70.6758 50.6272 69.4486 48.3851 67.5947 48.1344C65.7408 47.8837 63.9622 49.7194 63.6221 52.2344C63.282 54.7495 64.5092 56.9915 66.3632 57.2422C68.2171 57.4929 69.9957 55.6573 70.3358 53.1422Z" fill="#F1F1F1"/>
<path d="M33.0317 49.843C34.891 49.7406 36.2852 47.6024 36.1456 45.067C36.006 42.5317 34.3856 40.5593 32.5263 40.6617C30.6669 40.7641 29.2728 42.9024 29.4124 45.4377C29.552 47.9731 31.1724 49.9454 33.0317 49.843Z" fill="#F1F1F1"/>
<path d="M13.748 66.5222C15.6074 66.4198 17.0015 64.2815 16.8619 61.7462C16.7223 59.2109 15.1019 57.2385 13.2426 57.3409C11.3832 57.4433 9.98913 59.5815 10.1287 62.1169C10.2683 64.6522 11.8887 66.6246 13.748 66.5222Z" fill="#F1F1F1"/>
<path d="M27.894 21.2753C30.4293 21.1357 32.4016 19.5153 32.2993 17.656C32.1969 15.7967 30.0586 14.4025 27.5233 14.5421C24.9879 14.6817 23.0156 16.3021 23.118 18.1614C23.2203 20.0208 25.3586 21.4149 27.894 21.2753Z" fill="#F1F1F1"/>
<path d="M43.8105 13.4007C46.3458 13.2611 48.3181 11.6407 48.2158 9.7814C48.1134 7.92208 45.9751 6.52797 43.4398 6.66755C40.9044 6.80713 38.9321 8.42756 39.0345 10.2869C39.1368 12.1462 41.2751 13.5403 43.8105 13.4007Z" fill="#F1F1F1"/>
<path d="M60.4848 21.8209C63.0201 21.6814 64.9925 20.0609 64.8901 18.2016C64.7877 16.3423 62.6494 14.9482 60.1141 15.0878C57.5787 15.2274 55.6064 16.8478 55.7088 18.7071C55.8111 20.5664 57.9494 21.9605 60.4848 21.8209Z" fill="#F1F1F1"/>
<path d="M44.9423 29.1335C47.4777 28.9939 49.45 27.3735 49.3476 25.5142C49.2453 23.6549 47.107 22.2608 44.5716 22.4003C42.0363 22.5399 40.0639 24.1603 40.1663 26.0197C40.2687 27.879 42.407 29.2731 44.9423 29.1335Z" fill="#F1F1F1"/>
</g>
<defs>
<clipPath id="clip0">
<rect width="88" height="88" fill="white"/>
</clipPath>
</defs>
</svg>
