<svg width="88" height="88" viewBox="0 0 88 88" fill="none" xmlns="http://www.w3.org/2000/svg">
<path d="M80.0938 25.9531H77.5156L72.3594 28.6924L77.5156 31.1094H80.0938C81.5164 31.1094 82.6719 32.2648 82.6719 33.6875V49.1562C82.6719 50.5809 83.8253 51.7344 85.25 51.7344C86.6747 51.7344 87.8281 50.5809 87.8281 49.1562V33.6875C87.8281 29.4229 84.3584 25.9531 80.0938 25.9531Z" fill="#9FACBA"/>
<path d="M77.5156 18.2188V25.9531L72.3594 31.1094H67.2031L62.0469 25.9531V18.2188C62.0469 13.9387 65.5012 10.4844 69.7812 10.4844C74.0613 10.4844 77.5156 13.9387 77.5156 18.2188Z" fill="#D9E7EC"/>
<path d="M56.8906 7.73438V85.4219C56.8906 86.866 55.7567 88 54.3125 88H2.57812C1.13397 88 0 86.866 0 85.4219V7.73438C0 6.29022 1.13397 5.15625 2.57812 5.15625H54.3125C55.7567 5.15625 56.8906 6.29022 56.8906 7.73438Z" fill="#264B77"/>
<path d="M56.8906 7.73438V85.4219C56.8906 86.866 55.7567 88 54.3125 88H28.3594V5.15625H54.3125C55.7567 5.15625 56.8906 6.29022 56.8906 7.73438Z" fill="#183354"/>
<path d="M5.15625 10.3125H51.7344V82.8438H5.15625V10.3125Z" fill="white"/>
<path d="M28.3594 10.3125H51.7344V82.8438H28.3594V10.3125Z" fill="#FAFAFA"/>
<path d="M46.4062 69.9531C46.4062 71.3973 45.2723 72.5312 43.8281 72.5312H12.8906C11.4465 72.5312 10.3125 71.3973 10.3125 69.9531C10.3125 68.509 11.4465 67.375 12.8906 67.375H43.8281C45.2723 67.375 46.4062 68.509 46.4062 69.9531Z" fill="#E8E8E8"/>
<path d="M72.3594 80.2656V85.4219C72.3594 86.866 71.2254 88 69.7812 88C68.3371 88 67.2031 86.866 67.2031 85.4219V80.2656C67.2031 78.8215 68.3371 77.6875 69.7812 77.6875C71.2254 77.6875 72.3594 78.8215 72.3594 80.2656Z" fill="#D9E7EC"/>
<path d="M46.045 31.3155L37.3828 31.1094L28.3594 41.4219L23.2031 51.4766L28.3594 62.0469C28.8233 62.0469 29.2355 61.9435 29.6484 61.6857L45.1689 52.5078C45.2723 52.4561 45.375 52.3534 45.4784 52.3017C46.045 51.7861 46.4062 51.0126 46.4062 50.2909V32.6046C46.4062 32.1406 46.3029 31.6767 46.045 31.3155Z" fill="#F41042"/>
<path d="M19.3359 31.1094L10.6737 31.3155C10.4159 31.7284 10.3125 32.1406 10.3125 32.6046V50.2902C10.3125 51.0126 10.6737 51.7861 11.2404 52.3017C11.3437 52.3527 27.0703 61.6857 27.0703 61.6857C27.4832 61.9435 27.8954 62.0469 28.3594 62.0469V41.4219L19.3359 31.1094Z" fill="#EF5C7C"/>
<path d="M46.0452 31.3155L28.3595 41.4219L10.6738 31.3155C10.7249 31.2645 10.7766 31.1611 10.8282 31.1094C11.0344 30.7999 11.2922 30.5938 11.6017 30.3876L27.0704 21.1581C27.4833 20.9003 27.9466 20.7969 28.3595 20.7969C28.7724 20.7969 29.2357 20.9003 29.6486 21.1581L45.1173 30.3876C45.4268 30.5938 45.6846 30.8516 45.8907 31.1094C45.9424 31.1611 45.9935 31.2645 46.0452 31.3155Z" fill="#F4B9C6"/>
<path d="M46.045 31.3155L28.3594 41.4219V20.7969C28.7723 20.7969 29.2355 20.9003 29.6484 21.1581L45.1172 30.3876C45.4267 30.5938 45.6845 30.8516 45.8906 31.1094C45.9423 31.1611 45.9933 31.2645 46.045 31.3155Z" fill="#F08AA0"/>
<path d="M46.4062 69.9531C46.4062 71.3973 45.2723 72.5312 43.8281 72.5312H28.3594V67.375H43.8281C45.2723 67.375 46.4062 68.509 46.4062 69.9531Z" fill="#D1D4D8"/>
<path d="M41.25 5.15625C41.25 7.99219 38.9297 10.3125 36.0938 10.3125H20.625C17.7891 10.3125 15.4688 7.99219 15.4688 5.15625C15.4688 2.32031 17.7891 0 20.625 0H36.0938C38.9297 0 41.25 2.32031 41.25 5.15625Z" fill="#F4B9C6"/>
<path d="M36.0938 10.3125H28.3594V0H36.0938C38.9297 0 41.25 2.32031 41.25 5.15625C41.25 7.99219 38.9297 10.3125 36.0938 10.3125Z" fill="#F08AA0"/>
<path d="M72.3594 80.2656V85.4219C72.3594 86.866 71.2254 88 69.7812 88V77.6875C71.2254 77.6875 72.3594 78.8215 72.3594 80.2656Z" fill="#9FACBA"/>
<path d="M77.5156 18.2188V25.9531L72.3594 31.1094H69.7812V10.4844C74.0613 10.4844 77.5156 13.9387 77.5156 18.2188Z" fill="#B6C4CF"/>
<path d="M62.0469 25.9531V69.9531C62.0469 70.366 62.1503 70.7266 62.3047 71.0871L67.4609 81.3996C67.9249 82.2764 68.8017 82.8438 69.7812 82.8438C70.7608 82.8438 71.6376 82.2764 72.1016 81.3996L77.2578 71.0871C77.4122 70.7266 77.5156 70.3654 77.5156 69.9531V25.9531H62.0469Z" fill="#EF5C7C"/>
<path d="M77.5156 25.9531V69.9531C77.5156 70.366 77.4122 70.7266 77.2578 71.0871L72.1016 81.3996C71.6376 82.2764 70.7608 82.8438 69.7812 82.8438V25.9531H77.5156Z" fill="#F41042"/>
</svg>
