<svg width="88" height="88" fill="none" xmlns="http://www.w3.org/2000/svg"><g clip-path="url(#clip0)"><path d="M86.128 66.177L65.85 83.034c-1.701 1.083-4.743 4.95-10.723 4.95H36.104a13.35 13.35 0 01-5.774-1.34l-20.02-8.971-5.154-15.466 5.155-15.466h15.07c2.578 0 5.052.773 7.166 2.166l12.218 8.145H56.88c2.835 0 5.155 2.32 5.155 5.155 0 2.836-2.32 5.155-5.155 5.155H33.681a2.552 2.552 0 00-2.577 2.578 2.553 2.553 0 002.577 2.578h27.736c1.03 0 1.134-.31 1.65-.567L79.888 57.98c2.114-1.496 5.156-1.186 6.909.928 1.907 2.422 1.443 5.516-.67 7.269z" fill="#FFCEBF"/><path d="M56.88 67.362h-2.578v-10.31h2.578c2.835 0 5.155 2.32 5.155 5.155 0 2.836-2.32 5.155-5.155 5.155zm29.247-1.185L65.85 83.034c-1.7 1.083-4.742 4.95-10.722 4.95h-.825V72.517h7.114c1.032 0 1.134-.31 1.65-.567l16.822-13.97c2.114-1.495 5.155-1.186 6.908.928 1.908 2.422 1.444 5.516-.67 7.269z" fill="#FFBFAB"/><path d="M7.733 82.828H2.577A2.578 2.578 0 010 80.25V49.32a2.578 2.578 0 012.577-2.578h7.733v33.51a2.578 2.578 0 01-2.577 2.577z" fill="#0A1B30"/><path d="M77.501 14.727v22.787c0 .928-.516 1.752-1.29 2.216L55.54 51.587c-.36.206-.824.31-1.236.31l-5.156-13.774 5.156-12.003L65.9 14.524l11.24-1.084c.258.412.361.824.361 1.288z" fill="#F41042"/><path d="M54.303 26.12v25.776c-.413 0-.877-.102-1.238-.309L32.393 39.73c-.774-.464-1.29-1.29-1.29-2.217V14.727c0-.464.104-.876.362-1.29l11.689 1.337L54.303 26.12z" fill="#EF5C7C"/><path d="M77.14 13.438L54.301 26.12 31.464 13.438c.258-.36.567-.721.98-.928 0 0 20.724-12.252 20.775-12.252.36-.155.722-.258 1.083-.258.36 0 .722.103 1.083.258.051 0 20.775 12.252 20.775 12.252.413.207.722.567.98.928z" fill="#F4B9C6"/><path d="M77.14 13.438L54.301 26.12V0c.36 0 .722.103 1.083.258.051 0 20.775 12.252 20.775 12.252.413.207.722.567.98.928z" fill="#F08AA0"/></g><defs><clipPath id="clip0"><path fill="#fff" d="M0 0h88v88H0z"/></clipPath></defs></svg>