<svg width="88" height="88" fill="none" xmlns="http://www.w3.org/2000/svg"><path d="M46.578 62.047v20.625A2.553 2.553 0 0144 85.25a2.553 2.553 0 01-2.578-2.578V62.047A2.552 2.552 0 0144 59.469a2.552 2.552 0 012.578 2.578z" fill="#445973"/><path d="M46.578 62.047v20.625A2.553 2.553 0 0144 85.25V59.469a2.552 2.552 0 012.578 2.578z" fill="#183354"/><path d="M88 49.156V59.47c0 2.836-2.32 5.156-5.156 5.156H5.156C2.32 64.625 0 62.305 0 59.469V49.156C0 46.32 2.32 44 5.156 44L44 38.844 82.844 44c2.475 0 4.589 1.753 5.053 4.125.103.412.103.722.103 1.031z" fill="#F14D71"/><path d="M88 49.156V59.47c0 2.836-2.32 5.156-5.156 5.156H44V38.844L82.844 44c2.475 0 4.589 1.753 5.053 4.125.103.412.103.722.103 1.031z" fill="#F41042"/><path d="M15.464 54.313a2.578 2.578 0 11-5.157-.001 2.578 2.578 0 015.157 0zm10.312 0a2.578 2.578 0 11-5.156-.001 2.578 2.578 0 015.156 0zm41.422 0a2.578 2.578 0 11-5.156 0 2.578 2.578 0 015.156 0zm10.312 0a2.578 2.578 0 11-5.156 0 2.578 2.578 0 015.157 0z" fill="#fff"/><path d="M56.89 54.313a2.553 2.553 0 01-2.578 2.578H33.517a2.553 2.553 0 01-2.578-2.578 2.553 2.553 0 012.578-2.579h20.797a2.552 2.552 0 012.578 2.578z" fill="#445973"/><path d="M56.89 54.313a2.553 2.553 0 01-2.578 2.578H44v-5.157h10.313a2.552 2.552 0 012.578 2.578z" fill="#183354"/><path d="M88 28.531v10.313C88 41.68 85.68 44 82.844 44H5.156C2.32 44 0 41.68 0 38.844V28.53c0-2.836 2.32-5.156 5.156-5.156L44 18.219l38.844 5.156c2.475 0 4.589 1.753 5.053 4.125.103.412.103.722.103 1.031z" fill="#F0829A"/><path d="M88 28.531v10.313C88 41.68 85.68 44 82.844 44H44V18.219l38.844 5.156c2.475 0 4.589 1.753 5.053 4.125.103.412.103.722.103 1.031z" fill="#F14D71"/><path d="M15.464 33.688a2.578 2.578 0 11-5.157-.001 2.578 2.578 0 015.157 0zm10.312 0a2.578 2.578 0 11-5.156-.001 2.578 2.578 0 015.156 0zm41.422 0a2.578 2.578 0 11-5.156 0 2.578 2.578 0 015.156 0zm10.312 0a2.578 2.578 0 11-5.156 0 2.578 2.578 0 015.157 0z" fill="#fff"/><path d="M56.89 33.688a2.553 2.553 0 01-2.578 2.578H33.517a2.553 2.553 0 01-2.578-2.578 2.553 2.553 0 012.578-2.579h20.797a2.552 2.552 0 012.578 2.578z" fill="#445973"/><path d="M56.89 33.688a2.553 2.553 0 01-2.578 2.578H44v-5.157h10.313a2.552 2.552 0 012.578 2.578z" fill="#183354"/><path d="M88 82.672a2.553 2.553 0 01-2.578 2.578H2.578A2.553 2.553 0 010 82.672a2.553 2.553 0 012.578-2.578h82.844A2.553 2.553 0 0188 82.672z" fill="#445973"/><path d="M88 7.906V18.22c0 2.836-2.32 5.156-5.156 5.156H5.156C2.32 23.375 0 21.055 0 18.219V7.906C0 5.07 2.32 2.75 5.156 2.75h77.688C85.68 2.75 88 5.07 88 7.906z" fill="#F14D71"/><path d="M88 7.906V18.22c0 2.836-2.32 5.156-5.156 5.156H44V2.75h38.844C85.68 2.75 88 5.07 88 7.906z" fill="#F41042"/><path d="M15.464 13.063a2.578 2.578 0 11-5.157-.001 2.578 2.578 0 015.157 0zm10.312 0a2.578 2.578 0 11-5.156-.001 2.578 2.578 0 015.156 0zm41.422 0a2.578 2.578 0 11-5.156 0 2.578 2.578 0 015.156 0zm10.312 0a2.578 2.578 0 11-5.156 0 2.578 2.578 0 015.157 0z" fill="#fff"/><path d="M56.89 13.063a2.553 2.553 0 01-2.578 2.578H33.517a2.553 2.553 0 01-2.578-2.579 2.553 2.553 0 012.578-2.578h20.797a2.552 2.552 0 012.578 2.579z" fill="#445973"/><path d="M56.89 13.063a2.553 2.553 0 01-2.578 2.578H44v-5.157h10.313a2.552 2.552 0 012.578 2.579zM88 82.672a2.553 2.553 0 01-2.578 2.578H44v-5.156h41.422A2.553 2.553 0 0188 82.672z" fill="#183354"/></svg>