<svg width="88" height="88" fill="none" xmlns="http://www.w3.org/2000/svg"><g clip-path="url(#clip0)"><path d="M84.39 22.17v43.66a5.616 5.616 0 01-3.203 5.07L46.42 87.453a5.616 5.616 0 01-4.836 0L6.813 70.901a5.616 5.616 0 01-3.204-5.07V22.17a5.59 5.59 0 01.936-3.1 5.581 5.581 0 012.269-1.97L41.583.546a5.627 5.627 0 014.837 0L81.188 17.1a5.574 5.574 0 012.268 1.97c.6.902.935 1.975.935 3.1z" fill="#F0829A"/><path d="M83.456 19.069a5.576 5.576 0 00-2.268-1.97L46.42.546a5.627 5.627 0 00-4.837 0l-.24.114 34.53 16.44a5.574 5.574 0 012.268 1.969c.6.902.935 1.975.935 3.1v43.662a5.616 5.616 0 01-3.203 5.07L41.343 87.34l.24.113a5.617 5.617 0 004.837 0l34.767-16.552a5.616 5.616 0 003.204-5.07V22.17a5.594 5.594 0 00-.935-3.1z" fill="#F14D71"/><path d="M44 37.854V88a5.608 5.608 0 01-2.417-.547L6.813 70.901a5.616 5.616 0 01-3.204-5.07V22.17a5.59 5.59 0 01.936-3.1L44 37.854z" fill="#F14D71"/><path d="M84.39 22.17v43.662a5.62 5.62 0 01-3.144 5.042l-.058.028-34.769 16.551A5.618 5.618 0 0144 88V37.854l39.456-18.785c.6.902.935 1.975.935 3.1z" fill="#F41042"/><path d="M83.456 19.069l-4.468 2.127c.056.318.088.643.088.973v43.663a5.62 5.62 0 01-3.145 5.042l-.058.028L44 86.075V88c.826 0 1.655-.182 2.42-.547l34.768-16.551.058-.028a5.62 5.62 0 003.145-5.042V22.17a5.595 5.595 0 00-.936-3.1z" fill="#D40734"/><path d="M70.336 53.142c.34-2.515-.887-4.757-2.741-5.008-1.854-.25-3.633 1.585-3.973 4.1-.34 2.515.887 4.758 2.741 5.008s3.633-1.585 3.973-4.1zm-37.304-3.299c1.859-.102 3.253-2.24 3.114-4.776-.14-2.535-1.76-4.508-3.62-4.405-1.86.102-3.253 2.24-3.114 4.776.14 2.535 1.76 4.507 3.62 4.405zM13.748 66.522c1.86-.102 3.254-2.24 3.114-4.776-.14-2.535-1.76-4.508-3.62-4.405-1.859.102-3.253 2.24-3.113 4.776.14 2.535 1.76 4.508 3.619 4.405zm14.146-45.247c2.535-.14 4.508-1.76 4.405-3.619-.102-1.86-2.24-3.253-4.776-3.114-2.535.14-4.507 1.76-4.405 3.62.102 1.859 2.24 3.253 4.776 3.113zM43.81 13.4c2.536-.139 4.508-1.76 4.406-3.619-.103-1.859-2.24-3.253-4.776-3.113-2.536.14-4.508 1.76-4.405 3.619.102 1.86 2.24 3.253 4.776 3.114zm16.675 8.42c2.535-.139 4.508-1.76 4.405-3.618-.102-1.86-2.24-3.254-4.776-3.114-2.535.14-4.508 1.76-4.405 3.62.102 1.858 2.24 3.253 4.776 3.113zm-15.543 7.314c2.536-.14 4.508-1.76 4.406-3.62-.103-1.86-2.241-3.253-4.776-3.114-2.536.14-4.508 1.76-4.406 3.62.103 1.859 2.241 3.253 4.776 3.114z" fill="#F1F1F1"/></g><defs><clipPath id="clip0"><path fill="#fff" d="M0 0h88v88H0z"/></clipPath></defs></svg>