<svg width="88" height="88" fill="none" xmlns="http://www.w3.org/2000/svg"><path d="M88 49.156l-12.758.767-9.414 9.546-5.07 13.062L65.828 88l20.692-9.616A2.58 2.58 0 0088 76.051V49.156z" fill="#F41042"/><path d="M44 49.156L38.844 65.28 44 77.687 65.828 88V59.469l-8.937-9.403L44 49.156z" fill="#EF5C7C"/><path d="M65.828 38.844H49.801L44 49.156 65.828 59.47 88 49.156 65.828 38.844z" fill="#F08AA0"/><path d="M44 49.156l-12.587.767L22 59.469 16.93 72.53 22 88l22-10.313v-28.53z" fill="#F41042"/><path d="M0 49.156v26.895a2.58 2.58 0 001.48 2.333L22 88V59.469l-8.938-9.403L0 49.156z" fill="#EF5C7C"/><path d="M22 38.844L0 49.156 22 59.47l22-10.313-11.785-10.702-10.215.39z" fill="#F08AA0"/><path d="M65.828 10.313l-12.5.766L44 20.625l-5.156 13.063L44 49.156l21.828-10.312V10.312z" fill="#F41042"/><path d="M22 10.313v28.53l22 10.313V20.625l-9.023-9.403L22 10.312z" fill="#EF5C7C"/><path d="M42.902.246L22 10.312l22 10.313 21.828-10.313L45.098.246a2.575 2.575 0 00-2.196 0z" fill="#F08AA0"/></svg>