<svg width="88" height="88" fill="none" xmlns="http://www.w3.org/2000/svg"><path d="M80.094 25.953h-2.578l-5.157 2.74 5.157 2.416h2.578a2.58 2.58 0 012.578 2.578v15.47a2.577 2.577 0 105.156 0v-15.47c0-4.264-3.47-7.734-7.734-7.734z" fill="#9FACBA"/><path d="M77.516 18.219v7.734l-5.157 5.156h-5.156l-5.156-5.156V18.22a7.724 7.724 0 017.734-7.735 7.724 7.724 0 017.735 7.735z" fill="#D9E7EC"/><path d="M56.89 7.734v77.688A2.553 2.553 0 0154.313 88H2.578A2.553 2.553 0 010 85.422V7.734a2.553 2.553 0 012.578-2.578h51.735a2.553 2.553 0 012.578 2.578z" fill="#264B77"/><path d="M56.89 7.734v77.688A2.553 2.553 0 0154.313 88H28.36V5.156h25.953a2.553 2.553 0 012.579 2.578z" fill="#183354"/><path d="M5.156 10.313h46.578v72.53H5.156v-72.53z" fill="#fff"/><path d="M28.36 10.313h23.374v72.53H28.36v-72.53z" fill="#FAFAFA"/><path d="M46.406 69.953a2.552 2.552 0 01-2.578 2.578H12.891a2.553 2.553 0 01-2.579-2.578 2.553 2.553 0 012.579-2.578h30.937a2.553 2.553 0 012.578 2.578z" fill="#E8E8E8"/><path d="M72.36 80.266v5.156A2.553 2.553 0 0169.78 88a2.553 2.553 0 01-2.578-2.578v-5.156a2.553 2.553 0 012.578-2.579 2.553 2.553 0 012.578 2.579z" fill="#D9E7EC"/><path d="M46.045 31.316l-8.662-.207-9.024 10.313-5.156 10.055 5.156 10.57c.464 0 .876-.103 1.29-.361l15.52-9.178c.103-.052.206-.155.31-.206.566-.516.927-1.29.927-2.011V32.605c0-.464-.103-.928-.361-1.29z" fill="#F41042"/><path d="M19.336 31.11l-8.662.206a2.329 2.329 0 00-.361 1.289V50.29c0 .723.36 1.496.927 2.012.104.05 15.83 9.384 15.83 9.384.413.258.825.36 1.29.36V41.423L19.336 31.11z" fill="#EF5C7C"/><path d="M46.045 31.316L28.36 41.422 10.675 31.316c.05-.051.103-.155.154-.207.206-.31.464-.515.774-.721l15.468-9.23a2.45 2.45 0 011.29-.361c.412 0 .876.103 1.289.361l15.468 9.23c.31.206.568.464.774.721.051.052.102.155.154.206z" fill="#F4B9C6"/><path d="M46.045 31.316L28.359 41.422V20.797c.413 0 .876.103 1.29.361l15.468 9.23c.31.206.568.464.774.721.051.052.102.155.154.206z" fill="#F08AA0"/><path d="M46.406 69.953a2.552 2.552 0 01-2.578 2.578H28.36v-5.156h15.47a2.553 2.553 0 012.577 2.578z" fill="#D1D4D8"/><path d="M41.25 5.156c0 2.836-2.32 5.157-5.156 5.157H20.625c-2.836 0-5.156-2.32-5.156-5.157C15.469 2.32 17.789 0 20.625 0h15.469c2.836 0 5.156 2.32 5.156 5.156z" fill="#F4B9C6"/><path d="M36.094 10.313h-7.735V0h7.735c2.836 0 5.156 2.32 5.156 5.156s-2.32 5.157-5.156 5.157z" fill="#F08AA0"/><path d="M72.36 80.266v5.156A2.553 2.553 0 0169.78 88V77.687a2.553 2.553 0 012.578 2.579z" fill="#9FACBA"/><path d="M77.516 18.219v7.734l-5.157 5.156h-2.578V10.484a7.724 7.724 0 017.735 7.735z" fill="#B6C4CF"/><path d="M62.047 25.953v44c0 .413.103.774.258 1.134L67.46 81.4c.464.876 1.34 1.444 2.32 1.444.98 0 1.857-.568 2.32-1.444l5.157-10.313c.154-.36.258-.722.258-1.134v-44h-15.47z" fill="#EF5C7C"/><path d="M77.516 25.953v44c0 .413-.104.774-.258 1.134L72.102 81.4c-.464.876-1.341 1.444-2.32 1.444v-56.89h7.734z" fill="#F41042"/></svg>