<svg width="96" height="32" fill="none" xmlns="http://www.w3.org/2000/svg"><path d="M11.263 31.96c-2.114 0-4.025-.489-5.733-1.464a11.123 11.123 0 01-4.026-3.985C.53 24.803.027 22.892 0 20.778V1.586C0 1.098.136.718.407.447.705.15 1.097 0 1.586 0c.46 0 .827.15 1.098.447.298.271.447.65.447 1.139V13.54c.894-1.274 2.074-2.29 3.537-3.05 1.491-.786 3.145-1.179 4.961-1.179 2.087 0 3.958.502 5.611 1.505 1.654.976 2.955 2.317 3.904 4.025.975 1.708 1.463 3.633 1.463 5.774 0 2.169-.501 4.107-1.504 5.815a10.931 10.931 0 01-4.026 4.066c-1.707.975-3.645 1.463-5.814 1.463zm0-2.847c1.572 0 2.982-.366 4.229-1.098a8.106 8.106 0 002.927-3.05c.732-1.273 1.098-2.724 1.098-4.35 0-1.6-.366-3.036-1.098-4.31a7.732 7.732 0 00-2.927-3.05c-1.247-.732-2.657-1.097-4.229-1.097-1.545 0-2.941.366-4.188 1.097a7.732 7.732 0 00-2.928 3.05c-.704 1.274-1.057 2.71-1.057 4.31 0 1.626.353 3.077 1.057 4.35a8.106 8.106 0 002.928 3.05c1.247.732 2.643 1.098 4.188 1.098zM38.426 32c-1.925 0-3.646-.393-5.164-1.18-1.518-.812-2.724-1.992-3.62-3.537-.866-1.545-1.3-3.429-1.3-5.652V11.06c0-.434.149-.8.447-1.098a1.492 1.492 0 011.098-.447c.46 0 .84.149 1.138.447.299.298.448.664.448 1.098v10.57c0 2.494.69 4.351 2.073 5.571 1.383 1.22 3.118 1.83 5.205 1.83 1.328 0 2.52-.258 3.578-.773 1.084-.515 1.938-1.22 2.562-2.114.623-.895.935-1.911.935-3.05V11.06c0-.461.136-.827.407-1.098.298-.298.677-.447 1.138-.447.46 0 .84.149 1.139.447.298.271.447.637.447 1.098v19.11c0 .488-.15.881-.447 1.18-.299.27-.678.406-1.139.406-.46 0-.84-.136-1.139-.407-.27-.298-.406-.69-.406-1.179v-1.382a9.481 9.481 0 01-3.253 2.358c-1.274.57-2.656.854-4.147.854zm19.385-.244c-1.03 0-1.545-.515-1.545-1.545V11.06c0-1.03.515-1.545 1.545-1.545 1.03 0 1.545.515 1.545 1.545v1.748a8.832 8.832 0 013.009-2.562c1.193-.65 2.507-.975 3.944-.975 1.247 0 2.21.176 2.887.528.678.353.935.868.773 1.545-.136.624-.461.95-.976.976-.488 0-1.071-.027-1.749-.081-1.518-.136-2.873.027-4.066.488-1.165.434-2.1 1.111-2.805 2.033-.678.921-1.017 2.02-1.017 3.293v12.158c0 1.03-.515 1.545-1.545 1.545zm18.664 0c-.488 0-.881-.136-1.18-.407-.27-.298-.406-.677-.406-1.138V11.1c0-.489.135-.868.406-1.14.299-.297.692-.446 1.18-.446.46 0 .826.149 1.097.447.299.271.448.65.448 1.138v1.383c.867-1.003 1.938-1.79 3.212-2.359 1.301-.569 2.697-.853 4.188-.853 1.925 0 3.646.406 5.164 1.22 1.518.786 2.71 1.951 3.578 3.496.894 1.545 1.342 3.43 1.342 5.652V30.21c0 .434-.15.8-.448 1.098a1.493 1.493 0 01-1.097.447c-.461 0-.84-.15-1.139-.447a1.493 1.493 0 01-.447-1.098V19.639c0-2.52-.705-4.378-2.114-5.57-1.383-1.22-3.104-1.83-5.164-1.83-1.329 0-2.535.257-3.62.772-1.056.516-1.897 1.22-2.52 2.115-.624.894-.935 1.91-.935 3.05V30.21c0 .46-.15.84-.448 1.138-.27.271-.637.407-1.097.407z" fill="#F41043"/></svg>