<svg width="83" height="82" viewBox="0 0 83 82" fill="none" xmlns="http://www.w3.org/2000/svg">
<g filter="url(#filter0_d)">
<circle cx="40.4998" cy="38.0625" r="28.5833" fill="#F41042"/>
</g>
<g clip-path="url(#clip0)">
<path d="M48.1802 39.5769L36.5873 45.8919C36.3263 46.0327 36.0331 46.1031 35.7365 46.0962C35.44 46.0893 35.1504 46.0052 34.8962 45.8524C34.6421 45.6996 34.4321 45.4832 34.2869 45.2245C34.1417 44.9659 34.0664 44.6739 34.0684 44.3773V31.7474C34.0664 31.4508 34.1417 31.1588 34.2869 30.9002C34.4321 30.6415 34.6421 30.4251 34.8962 30.2723C35.1504 30.1195 35.44 30.0355 35.7365 30.0285C36.0331 30.0216 36.3263 30.092 36.5873 30.2328L48.1802 36.5478C48.4511 36.6972 48.677 36.9165 48.8343 37.1829C48.9917 37.4493 49.0747 37.753 49.0747 38.0624C49.0747 38.3717 48.9917 38.6755 48.8343 38.9418C48.677 39.2082 48.4511 39.4275 48.1802 39.5769Z" fill="white"/>
</g>
<defs>
<filter id="filter0_d" x="0.916504" y="0.479126" width="81.1667" height="81.1667" filterUnits="userSpaceOnUse" color-interpolation-filters="sRGB">
<feFlood flood-opacity="0" result="BackgroundImageFix"/>
<feColorMatrix in="SourceAlpha" type="matrix" values="0 0 0 0 0 0 0 0 0 0 0 0 0 0 0 0 0 0 127 0"/>
<feOffset dx="1" dy="3"/>
<feGaussianBlur stdDeviation="6"/>
<feColorMatrix type="matrix" values="0 0 0 0 0.495833 0 0 0 0 0.495833 0 0 0 0 0.495833 0 0 0 0.19 0"/>
<feBlend mode="multiply" in2="BackgroundImageFix" result="effect1_dropShadow"/>
<feBlend mode="normal" in="SourceGraphic" in2="effect1_dropShadow" result="shape"/>
</filter>
<clipPath id="clip0">
<rect width="17.15" height="17.15" fill="white" transform="translate(31.9248 29.4874)"/>
</clipPath>
</defs>
</svg>
