<svg width="1101" height="600" viewBox="0 0 1101 600" fill="none" xmlns="http://www.w3.org/2000/svg">
<path d="M1040.03 0.244598L1050.06 1.71219L1034.16 10.5177L973.013 0.489197L973.746 0.244598H956.135L964.941 1.71219L945.373 10.7623L888.626 0.733795L889.849 0.244598H872.238L879.821 1.46759L856.584 10.5177L804.24 0.489197L805.952 0H788.341L794.7 1.22299L767.55 10.5177L719.609 0.733795L721.81 0H704.199L709.58 1.22299L678.516 10.5177L634.733 0.733795L637.668 0H620.057L624.46 0.978394L589.482 10.5177L550.346 1.22299L554.015 0.244598H536.404L540.073 1.22299L500.938 10.7623L465.471 1.22299L469.874 0.244598H452.507L455.442 0.978394L412.148 10.7623L380.84 1.46759L386.221 0.244598H368.61L370.811 0.978394L323.359 10.7623L295.964 1.46759L302.324 0.244598H284.713L286.425 0.733795L234.325 10.7623L210.599 1.71219L217.937 0.489197H200.571L201.794 0.978394L145.536 11.0069L125.724 1.95679L134.285 0.244598H116.673L117.407 0.489197L56.7468 10.7623L40.6033 1.95679L50.3873 0.489197H32.7762L33.2654 0.733795L0 5.62576V8.07175L36.4452 2.44598L52.5887 11.4961L0 20.0571V22.5031L56.2576 13.2083L74.6025 23.2369L3.91357 35.956L0 33.2654V36.2006L0.489197 36.6898H0V39.1357L3.42438 38.6466L21.7693 51.6103L0 55.5238V57.9698L24.4598 53.3225L45.4953 67.9984L0 77.5377V79.9837L48.4305 69.9552L72.6457 86.8324L0 102.976V105.422L75.0917 88.5446L102.976 108.113L6.11496 132.083L0 126.213V129.637L3.42438 132.817L0 133.551V135.997L5.38117 134.774L33.2654 161.435L0 170.241V172.686L35.4668 163.147L68.7322 194.945L0 215.736V218.182L70.4444 196.902L110.558 235.059L0 272.972V275.662L112.515 237.26L161.435 283.979L11.0069 343.172L0 326.539V330.942L8.56095 343.905L0 347.33V350.02L10.0285 346.107L59.682 420.709L0 448.349V451.04L60.905 422.911L126.457 521.728L0 592.907V595.597L127.68 523.685L178.068 599.755H181.003L129.637 522.462L306.726 422.666L410.436 521.728L302.079 599.511H306.237L412.148 523.441L491.887 599.511H495.312L414.105 521.973L552.548 422.666L694.904 522.218L616.633 599.755H620.057L696.861 523.685L805.707 599.755H809.865L698.573 521.973L798.614 422.911L979.617 522.707L931.186 600H934.121L981.818 523.93L1100.2 589.238V586.547L983.041 521.973L1044.92 423.155L1100.2 448.349V445.414L1046.15 420.954L1092.87 346.351L1100.2 349.287V346.596L1094.09 344.15L1100.2 334.611V329.963L1091.89 343.172L939.013 283.979L986.221 237.26L1100.2 275.662V272.972L988.667 235.059L1027.31 196.902L1100.94 218.916V216.47L1029.27 195.19L1061.31 163.636L1100.69 173.909V171.464L1063.02 161.435L1089.93 134.774L1100.69 137.464V135.018L1091.89 132.817L1100.69 124.256V120.832L1089.2 132.328L991.113 108.602L1018.26 89.0338L1100.69 107.379V104.933L1020.95 87.3216L1044.44 70.4444L1100.69 81.9405V79.4945L1047.37 68.4876L1067.92 53.8117L1100.94 60.1712V57.7252L1070.61 52.0995L1088.46 39.3803L1100.94 41.5817V39.1357L1091.4 37.4236L1100.69 29.5964V26.6612L1087.73 35.956L1016.55 23.4815L1034.41 13.4529L1100.69 24.2152V21.7693L1037.83 11.2515L1053.73 2.20139L1100.69 9.53934V7.09335L1055.93 0.244598H1040.03ZM945.618 13.2083L1009.46 24.4598L989.156 35.956L923.359 23.4815L945.618 13.2083ZM200.571 38.402L229.433 51.6103L159.234 67.2646L132.328 52.5887L200.571 38.402ZM129.393 50.6319L105.911 37.6682L171.708 25.1936L197.146 36.6898L129.393 50.6319ZM855.116 52.3441L822.829 67.2646L758.744 51.6103L792.499 38.402L855.116 52.3441ZM796.413 36.9344L826.009 25.1936L886.914 37.6682L858.785 50.6319L796.413 36.9344ZM778.801 87.8108L736.241 107.379L668.487 87.077L712.515 69.7106L778.801 87.8108ZM716.184 68.4876L754.586 53.3225L819.16 68.9768L782.226 86.0986L716.184 68.4876ZM484.06 110.069L544.232 133.306L475.01 160.457L415.573 133.306L484.06 110.069ZM412.148 132.083L361.517 109.091L428.781 88.7892L480.391 108.846L412.148 132.083ZM487.729 108.846L546.677 88.7892L606.604 109.091L547.656 132.328L487.729 108.846ZM610.273 110.069L679.739 133.551L621.28 160.701L550.836 133.551L610.273 110.069ZM613.697 108.602L664.574 88.5446L732.817 108.846L683.163 131.839L613.697 108.602ZM664.574 86.0986L605.87 68.4876L650.632 53.3225L708.602 68.9768L664.574 86.0986ZM660.905 87.5662L610.273 107.379L550.591 87.3216L601.712 69.9552L660.905 87.5662ZM546.677 86.0986L495.067 68.7322L545.944 53.3225L597.554 68.7322L546.677 86.0986ZM543.009 87.3216L484.305 107.379L432.695 87.3216L491.154 69.7106L543.009 87.3216ZM429.026 86.0986L384.509 68.7322L441.989 53.0779L487.24 68.243L429.026 86.0986ZM425.112 87.3216L358.092 107.623L314.554 87.8108L380.351 69.9552L425.112 87.3216ZM311.129 86.0986L273.461 68.9768L337.301 53.3225L376.437 68.4876L311.129 86.0986ZM307.46 87.077L232.369 107.379L196.657 87.8108L269.792 69.9552L307.46 87.077ZM311.129 88.7892L354.668 108.602L276.885 132.083L235.304 109.091L311.129 88.7892ZM358.092 110.069L408.969 133.306L328.74 160.701L279.821 133.795L358.092 110.069ZM412.148 134.774L471.83 161.924L389.645 194.211L331.676 162.169L412.148 134.774ZM475.01 163.392L545.944 195.679L462.291 234.325L392.336 195.679L475.01 163.392ZM478.19 162.169L547.656 134.774L618.345 162.169L548.879 194.211L478.19 162.169ZM621.525 163.392L705.422 195.923L636.934 234.325L551.814 195.679L621.525 163.392ZM624.46 161.924L683.163 134.774L764.859 162.413L708.112 194.456L624.46 161.924ZM686.343 133.306L736.241 110.314L815.491 134.04L767.794 160.946L686.343 133.306ZM739.666 108.602L782.47 88.7892L859.03 109.335L818.426 132.083L739.666 108.602ZM786.139 87.077L823.318 69.9552L897.187 87.8108L862.209 107.379L786.139 87.077ZM754.586 50.6319L698.084 36.9344L732.572 25.1936L788.096 37.4236L754.586 50.6319ZM750.673 52.3441L712.271 67.5092L654.545 52.0995L693.681 38.6466L750.673 52.3441ZM650.387 50.6319L599.755 36.9344L639.38 24.949L689.523 37.179L650.387 50.6319ZM646.229 52.0995L601.712 67.2646L550.346 51.8549L595.108 38.402L646.229 52.0995ZM546.188 50.6319L501.182 37.179L545.699 25.1936L590.705 37.179L546.188 50.6319ZM541.786 52.0995L491.154 67.5092L446.148 52.3441L496.535 38.6466L541.786 52.0995ZM441.989 50.6319L402.364 37.179L452.018 24.949L492.132 36.9344L441.989 50.6319ZM437.587 51.8549L380.595 67.2646L341.704 52.0995L397.962 38.402L437.587 51.8549ZM337.79 50.6319L303.791 37.4236L358.826 25.1936L393.803 36.9344L337.79 50.6319ZM333.632 51.8549L270.037 67.5092L237.26 52.3441L299.388 38.402L333.632 51.8549ZM233.592 50.6319L204.729 37.6682L264.9 25.1936L294.986 36.9344L233.592 50.6319ZM233.102 53.3225L266.123 68.243L193.477 86.0986L162.658 69.2214L233.102 53.3225ZM228.944 108.357L141.622 132.083L109.091 109.335L193.233 88.7892L228.944 108.357ZM231.879 110.069L273.461 133.062L182.226 160.701L144.068 133.795L231.879 110.069ZM276.641 134.774L325.561 161.68L230.412 194.211L184.916 162.413L276.641 134.774ZM328.496 163.392L386.71 195.434L287.892 234.325L232.858 195.923L328.496 163.392ZM354.668 283.979L227.232 342.927L166.082 284.468L287.403 236.771L354.668 283.979ZM290.094 236.037L389.401 196.902L459.6 235.548L357.358 283L290.094 236.037ZM462.291 237.016L548.145 284.223L443.702 343.172L359.804 284.468L462.291 237.016ZM464.982 235.793L548.879 196.902L634.244 235.793L550.591 283L464.982 235.793ZM636.934 237.016L741.378 284.468L659.682 343.172L552.792 284.223L636.934 237.016ZM639.625 235.548L708.357 196.902L809.132 236.037L743.824 283L639.625 235.548ZM811.822 237.016L935.1 284.713L876.152 343.172L746.27 283.979L811.822 237.016ZM811.578 234.325L711.048 195.434L768.039 163.392L864.9 195.923L811.578 234.325ZM770.73 161.68L818.671 134.774L911.374 162.413L867.101 194.211L770.73 161.68ZM821.606 133.062L862.454 110.069L951.243 133.795L914.064 160.457L821.606 133.062ZM865.389 108.357L900.367 88.7892L985.242 109.335L953.934 132.083L865.389 108.357ZM900.122 86.0986L826.743 68.243L859.03 53.3225L930.208 69.2214L900.122 86.0986ZM862.699 51.6103L891.072 38.402L959.804 52.5887L933.632 67.2646L862.699 51.6103ZM894.741 36.6898L919.69 25.1936L985.976 37.6682L962.984 50.6319L894.741 36.6898ZM884.223 2.44598L941.459 12.4745L919.445 22.7477L860.987 11.4961L884.223 2.44598ZM856.584 13.2083L915.532 24.4598L890.583 35.956L830.167 23.4815L856.584 13.2083ZM799.348 2.44598L852.181 12.4745L826.009 22.7477L772.197 11.7407L799.348 2.44598ZM767.794 13.2083L821.851 24.2152L792.254 35.956L737.22 23.726L767.794 13.2083ZM714.717 2.44598L762.903 12.2299L732.328 22.7477L683.408 11.9853L714.717 2.44598ZM678.761 13.2083L728.17 24.2152L693.681 35.956L643.783 23.726L678.761 13.2083ZM629.841 2.44598L673.869 12.2299L639.136 22.7477L594.863 11.9853L629.841 2.44598ZM589.727 13.2083L634.244 23.9706L594.863 35.956L550.346 23.9706L589.727 13.2083ZM545.21 2.44598L584.835 11.9853L545.455 22.7477L505.585 11.9853L545.21 2.44598ZM540.807 23.9706L496.535 35.956L456.665 23.9706L500.693 13.2083L540.807 23.9706ZM460.334 2.44598L495.801 11.9853L452.018 22.7477L416.796 12.2299L460.334 2.44598ZM447.371 23.726L397.962 35.956L362.984 24.2152L411.904 13.2083L447.371 23.726ZM375.703 2.44598L407.256 11.9853L358.826 22.7477L327.762 12.2299L375.703 2.44598ZM354.179 23.726L299.633 35.956L269.547 24.2152L323.115 13.2083L354.179 23.726ZM290.828 2.44598L318.467 11.7407L265.145 22.7477L238.728 12.4745L290.828 2.44598ZM260.742 23.4815L200.815 35.956L175.622 24.4598L234.081 13.2083L260.742 23.4815ZM206.196 2.44598L229.923 11.4961L171.708 22.7477L149.45 12.4745L206.196 2.44598ZM167.55 23.4815L102.242 35.956L81.4513 24.4598L144.802 13.2083L167.55 23.4815ZM60.1712 12.7191L121.321 2.44598L141.133 11.4961L78.2715 22.7477L60.1712 12.7191ZM6.84876 37.9128L78.0269 25.1936L98.8178 36.6898L25.1936 50.8765L6.84876 37.9128ZM27.8842 52.5887L101.998 38.402L125.479 51.3657L48.9197 67.2646L27.8842 52.5887ZM51.6103 69.2214L128.903 53.3225L155.809 68.243L75.8255 86.0986L51.6103 69.2214ZM78.5161 88.0554L159.234 69.9552L190.053 87.077L106.4 107.623L78.5161 88.0554ZM8.31635 134.04L105.911 110.069L138.443 132.817L35.956 160.701L8.31635 134.04ZM38.1574 162.658L141.133 134.774L179.535 161.68L71.1781 194.211L38.1574 162.658ZM73.1349 196.168L181.737 163.392L227.232 195.19L112.76 234.325L73.1349 196.168ZM115.206 236.037L230.167 196.902L285.202 235.304L164.37 282.756L115.206 236.037ZM12.2299 345.128L163.392 285.691L224.541 344.15L61.3942 419.731L12.2299 345.128ZM128.659 520.505L63.1064 421.932L226.743 346.107L305.259 420.954L128.659 520.505ZM229.189 344.884L357.114 285.691L441.256 344.395L307.46 419.731L229.189 344.884ZM412.882 520.505L309.172 421.688L443.212 346.107L550.836 421.443L412.882 520.505ZM553.037 419.731L445.658 344.639L550.591 285.691L657.725 344.639L553.037 419.731ZM697.106 520.505L555.238 421.199L659.927 346.107L796.902 421.688L697.106 520.505ZM798.859 419.731L662.373 344.395L744.313 285.691L874.684 344.884L798.859 419.731ZM981.329 520.505L801.06 420.954L876.641 346.107L1043.21 421.932L981.329 520.505ZM1091.15 345.128L1044.44 419.731L878.598 344.15L937.546 285.691L1091.15 345.128ZM937.057 283L814.268 235.548L867.835 197.146L984.264 236.282L937.057 283ZM985.976 234.325L870.037 195.19L914.309 163.392L1024.38 196.168L985.976 234.325ZM1026.58 194.211L917.244 161.435L954.423 134.774L1058.38 162.658L1026.58 194.211ZM1087.24 134.04L1060.58 160.457L957.114 132.817L988.911 110.069L1087.24 134.04ZM988.178 107.379L903.791 86.8324L934.121 69.7106L1015.57 87.8108L988.178 107.379ZM1017.77 86.0986L937.057 68.243L963.473 53.3225L1041.5 69.2214L1017.77 86.0986ZM1043.95 67.2646L966.653 51.3657L989.645 38.402L1064.25 52.5887L1043.95 67.2646ZM1085.04 37.9128L1067.18 50.6319L993.07 36.6898L1013.37 25.1936L1085.04 37.9128ZM1012.88 22.7477L949.531 11.4961L969.099 2.44598L1030.74 12.7191L1012.88 22.7477Z" fill="url(#paint0_linear)"/>
<defs>
<linearGradient id="paint0_linear" x1="861" y1="600" x2="195.918" y2="57.551" gradientUnits="userSpaceOnUse">
<stop stop-color="#FFE6E6"/>
<stop offset="0.997425" stop-color="#FFEBE0" stop-opacity="0.24"/>
</linearGradient>
</defs>
</svg>
