<svg width="96" height="32" viewBox="0 0 96 32" fill="none" xmlns="http://www.w3.org/2000/svg">
<path d="M11.263 31.9593C9.14866 31.9593 7.23761 31.4714 5.52986 30.4956C3.84922 29.5197 2.50741 28.1914 1.50445 26.5108C0.528589 24.803 0.0271072 22.892 0 20.7776V1.58577C0 1.09784 0.135536 0.718339 0.406607 0.447268C0.704786 0.14909 1.09784 0 1.58577 0C2.04659 0 2.41254 0.14909 2.68361 0.447268C2.98179 0.718339 3.13088 1.09784 3.13088 1.58577V13.54C4.02541 12.266 5.20457 11.2495 6.66836 10.4905C8.15925 9.70436 9.81279 9.31131 11.629 9.31131C13.7162 9.31131 15.5866 9.81279 17.2402 10.8158C18.8937 11.7916 20.1948 13.1334 21.1436 14.8412C22.1194 16.5489 22.6074 18.4735 22.6074 20.615C22.6074 22.7836 22.1059 24.7217 21.1029 26.4295C20.1271 28.1372 18.7853 29.4926 17.0775 30.4956C15.3698 31.4714 13.4316 31.9593 11.263 31.9593ZM11.263 29.1131C12.8352 29.1131 14.2448 28.7471 15.4917 28.0152C16.7387 27.2562 17.7145 26.2397 18.4193 24.9657C19.1512 23.6917 19.5172 22.2414 19.5172 20.615C19.5172 19.0157 19.1512 17.579 18.4193 16.305C17.7145 15.0038 16.7387 13.9873 15.4917 13.2554C14.2448 12.5235 12.8352 12.1576 11.263 12.1576C9.71791 12.1576 8.3219 12.5235 7.07497 13.2554C5.82804 13.9873 4.85218 15.0038 4.14739 16.305C3.44261 17.579 3.09022 19.0157 3.09022 20.615C3.09022 22.2414 3.44261 23.6917 4.14739 24.9657C4.85218 26.2397 5.82804 27.2562 7.07497 28.0152C8.3219 28.7471 9.71791 29.1131 11.263 29.1131Z" fill="#F41043"/>
<path d="M38.4257 32C36.5011 32 34.7798 31.6069 33.2618 30.8208C31.7438 30.0076 30.5375 28.8285 29.6429 27.2834C28.7755 25.7382 28.3418 23.8543 28.3418 21.6315V11.0597C28.3418 10.626 28.4909 10.2601 28.7891 9.96188C29.0872 9.6637 29.4532 9.51461 29.8869 9.51461C30.3477 9.51461 30.7272 9.6637 31.0254 9.96188C31.3236 10.2601 31.4727 10.626 31.4727 11.0597V21.6315C31.4727 24.1254 32.1639 25.9822 33.5464 27.202C34.9288 28.4219 36.6637 29.0318 38.751 29.0318C40.0792 29.0318 41.2719 28.7743 42.3291 28.2592C43.4134 27.7442 44.2673 27.0394 44.8907 26.1449C45.5142 25.2503 45.8259 24.2338 45.8259 23.0953V11.0597C45.8259 10.5989 45.9615 10.233 46.2325 9.96188C46.5307 9.6637 46.9102 9.51461 47.371 9.51461C47.8319 9.51461 48.2113 9.6637 48.5095 9.96188C48.8077 10.233 48.9568 10.5989 48.9568 11.0597V30.1703C48.9568 30.6582 48.8077 31.0512 48.5095 31.3494C48.2113 31.6205 47.8319 31.756 47.371 31.756C46.9102 31.756 46.5307 31.6205 46.2325 31.3494C45.9615 31.0512 45.8259 30.6582 45.8259 30.1703V28.7878C44.9314 29.7908 43.8471 30.5769 42.5731 31.1461C41.299 31.7154 39.9166 32 38.4257 32Z" fill="#F41043"/>
<path d="M57.811 31.756C56.7809 31.756 56.2659 31.241 56.2659 30.2109V11.0597C56.2659 10.0296 56.7809 9.51461 57.811 9.51461C58.8411 9.51461 59.3561 10.0296 59.3561 11.0597V12.8081C60.1693 11.7238 61.1723 10.87 62.365 10.2465C63.5577 9.59593 64.8724 9.27065 66.3091 9.27065C67.556 9.27065 68.5183 9.44684 69.196 9.79924C69.8737 10.1516 70.1312 10.6667 69.9686 11.3443C69.833 11.9678 69.5077 12.2931 68.9927 12.3202C68.5048 12.3202 67.922 12.2931 67.2443 12.2389C65.7263 12.1033 64.3709 12.266 63.1782 12.7268C62.0126 13.1605 61.0774 13.8382 60.3726 14.7598C59.6949 15.6815 59.3561 16.7793 59.3561 18.0534V30.2109C59.3561 31.241 58.8411 31.756 57.811 31.756Z" fill="#F41043"/>
<path d="M76.4746 31.756C75.9867 31.756 75.5936 31.6205 75.2954 31.3494C75.0244 31.0512 74.8888 30.6717 74.8888 30.2109V11.1004C74.8888 10.6125 75.0244 10.233 75.2954 9.96188C75.5936 9.6637 75.9867 9.51461 76.4746 9.51461C76.9354 9.51461 77.3014 9.6637 77.5724 9.96188C77.8706 10.233 78.0197 10.6125 78.0197 11.1004V12.4828C78.8871 11.4799 79.9579 10.6938 81.2319 10.1245C82.533 9.55527 83.929 9.27065 85.4199 9.27065C87.3446 9.27065 89.0659 9.67725 90.5839 10.4905C92.1019 11.2766 93.2946 12.4422 94.162 13.9873C95.0565 15.5324 95.5038 17.4163 95.5038 19.6391V30.2109C95.5038 30.6446 95.3547 31.0106 95.0565 31.3088C94.7584 31.6069 94.3924 31.756 93.9587 31.756C93.4979 31.756 93.1184 31.6069 92.8202 31.3088C92.522 31.0106 92.3729 30.6446 92.3729 30.2109V19.6391C92.3729 17.1182 91.6681 15.2613 90.2586 14.0686C88.8761 12.8488 87.1548 12.2389 85.0947 12.2389C83.7664 12.2389 82.5601 12.4964 81.4759 13.0114C80.4187 13.5265 79.5784 14.2313 78.9549 15.1258C78.3314 16.0203 78.0197 17.0368 78.0197 18.1754V30.2109C78.0197 30.6717 77.8706 31.0512 77.5724 31.3494C77.3014 31.6205 76.9354 31.756 76.4746 31.756Z" fill="#F41043"/>
</svg>
