<svg width="1101" height="600" fill="none" xmlns="http://www.w3.org/2000/svg"><path d="M1040.03.245l10.03 1.467-15.9 8.806L973.013.489l.733-.244h-17.611l8.806 1.467-19.568 9.05L888.626.734l1.223-.49h-17.611l7.583 1.224-23.237 9.05L804.24.489 805.952 0h-17.611l6.359 1.223-27.15 9.295L719.609.734 721.81 0h-17.611l5.381 1.223-31.064 9.295L634.733.734 637.668 0h-17.611l4.403.978-34.978 9.54-39.136-9.295 3.669-.978h-17.611l3.669.978-39.135 9.54-35.467-9.54 4.403-.978h-17.367l2.935.733-43.294 9.784-31.308-9.294 5.381-1.223H368.61l2.201.733-47.452 9.784-27.395-9.294 6.36-1.223h-17.611l1.712.489-52.1 10.028-23.726-9.05L217.937.49h-17.366l1.223.49-56.258 10.028-19.812-9.05 8.561-1.712h-17.612l.734.244-60.66 10.273-16.144-8.805L50.387.489h-17.61l.488.245L0 5.626v2.446l36.445-5.626 16.144 9.05L0 20.057v2.446l56.258-9.295 18.345 10.029-70.69 12.719L0 33.266V36.2l.49.489H0v2.446l3.424-.49L21.77 51.61 0 55.524v2.446l24.46-4.648 21.035 14.676L0 77.538v2.446l48.43-10.029 24.216 16.877L0 102.976v2.446l75.092-16.877 27.884 19.568-96.861 23.97L0 126.213v3.424l3.424 3.18-3.424.734v2.446l5.381-1.223 27.884 26.661L0 170.241v2.445l35.467-9.539 33.265 31.798L0 215.736v2.446l70.444-21.28 40.114 38.157L0 272.972v2.69l112.515-38.402 48.92 46.719-150.428 59.193L0 326.539v4.403l8.56 12.963L0 347.33v2.69l10.028-3.913 49.654 74.602L0 448.349v2.691l60.905-28.129 65.552 98.817L0 592.907v2.69l127.68-71.912 50.388 76.07h2.935l-51.366-77.293 177.089-99.796 103.71 99.062-108.357 77.783h4.158l105.911-76.07 79.739 76.07h3.425l-81.207-77.538 138.443-99.307 142.356 99.552-78.271 77.537h3.424l76.804-76.07 108.846 76.07h4.158l-111.292-77.782 100.041-99.062 181.003 99.796L931.186 600h2.935l47.697-76.07 118.382 65.308v-2.691l-117.159-64.574 61.879-98.818 55.28 25.194v-2.935l-54.05-24.46 46.72-74.603 7.33 2.936v-2.691l-6.11-2.446 6.11-9.539v-4.648l-8.31 13.209-152.877-59.193 47.208-46.719 113.979 38.402v-2.69l-111.533-37.913 38.643-38.157 73.63 22.014v-2.446l-71.67-21.28 32.04-31.554 39.38 10.273v-2.445l-37.67-10.029 26.91-26.661 10.76 2.69v-2.446l-8.8-2.201 8.8-8.561v-3.424l-11.49 11.496-98.087-23.726 27.147-19.568 82.43 18.345v-2.446l-79.74-17.611 23.49-16.878 56.25 11.496v-2.445l-53.32-11.007 20.55-14.676 33.02 6.36v-2.447l-30.33-5.626 17.85-12.719 12.48 2.202v-2.446l-9.54-1.712 9.29-7.828v-2.935l-12.96 9.295-71.18-12.475 17.86-10.028 66.28 10.762V21.77l-62.86-10.517 15.9-9.05 46.96 7.337V7.093L1055.93.245h-15.9zm-94.412 12.963l63.842 11.252-20.304 11.496-65.797-12.475 22.259-10.273zM200.571 38.402l28.862 13.208-70.199 15.655-26.906-14.676 68.243-14.187zm-71.178 12.23l-23.482-12.964 65.797-12.474 25.438 11.496-67.753 13.942zm725.723 1.712l-32.287 14.92-64.085-15.654 33.755-13.208 62.617 13.942zm-58.703-15.41l29.596-11.74 60.905 12.474-28.129 12.964-62.372-13.698zm-17.612 50.877l-42.56 19.568-67.754-20.302 44.028-17.366 66.286 18.1zm-62.617-19.323l38.402-15.166 64.574 15.655-36.934 17.122-66.042-17.611zM484.06 110.069l60.172 23.237-69.222 27.151-59.437-27.151 68.487-23.237zm-71.912 22.014l-50.631-22.992 67.264-20.302 51.61 20.057-68.243 23.237zm75.581-23.237l58.948-20.057 59.927 20.302-58.948 23.237-59.927-23.482zm122.544 1.223l69.466 23.482-58.459 27.15-70.444-27.15 59.437-23.482zm3.424-1.467l50.877-20.057 68.243 20.301-49.654 22.993-69.466-23.237zm50.877-22.503L605.87 68.488l44.762-15.166 57.97 15.655-44.028 17.122zm-3.669 1.467l-50.632 19.813-59.682-20.057 51.121-17.367 59.193 17.611zM546.677 86.1l-51.61-17.367 50.877-15.41 51.61 15.41L546.677 86.1zm-3.668 1.223l-58.704 20.057-51.61-20.057 58.459-17.611 51.855 17.61zM429.026 86.1l-44.517-17.367 57.48-15.654 45.251 15.165L429.026 86.1zm-3.914 1.223l-67.02 20.301-43.538-19.812 65.797-17.856 44.761 17.367zM311.129 86.1l-37.668-17.122 63.84-15.655 39.136 15.166-65.308 17.61zm-3.669.978l-75.091 20.302-35.712-19.568 73.135-17.856 37.668 17.122zm3.669 1.712l43.539 19.813-77.783 23.481-41.581-22.992 75.825-20.302zm46.963 21.28l50.877 23.237-80.229 27.395-48.919-26.906 78.271-23.726zm54.056 24.705l59.682 27.15-82.185 32.287-57.969-32.042 80.472-27.395zm62.862 28.618l70.934 32.287-83.653 38.646-69.955-38.646 82.674-32.287zm3.18-1.223l69.466-27.395 70.689 27.395-69.466 32.042-70.689-32.042zm143.335 1.223l83.897 32.531-68.488 38.402-85.12-38.646 69.711-32.287zm2.935-1.468l58.703-27.15 81.696 27.639-56.747 32.043-83.652-32.532zm61.883-28.618l49.898-22.992 79.25 23.726-47.697 26.906-81.451-27.64zm53.323-24.704L782.47 88.79l76.56 20.546-40.604 22.748-78.76-23.481zm46.473-21.525l37.179-17.122 73.869 17.856-34.978 19.568-76.07-20.302zm-31.553-36.445l-56.502-13.698 34.488-11.74 55.524 12.23-33.51 13.208zm-3.913 1.712L712.271 67.51 654.545 52.1l39.136-13.452 56.992 13.697zm-100.286-1.712l-50.632-13.698L639.38 24.95l50.143 12.23-39.136 13.453zm-4.158 1.468l-44.517 15.165-51.366-15.41 44.762-13.453L646.229 52.1zm-100.041-1.468L501.182 37.18l44.517-11.985 45.006 11.985-44.517 13.453zm-4.402 1.468l-50.632 15.41-45.006-15.166 50.387-13.697L541.786 52.1zm-99.797-1.468L402.364 37.18l49.654-12.23 40.114 11.985-50.143 13.698zm-4.402 1.223l-56.992 15.41L341.704 52.1l56.258-13.697 39.625 13.453zm-99.797-1.223l-33.999-13.208 55.035-12.23 34.977 11.74-56.013 13.698zm-4.158 1.223L270.037 67.51 237.26 52.345l62.128-13.942 34.244 13.453zm-100.04-1.223l-28.863-12.964L264.9 25.194l30.086 11.74-61.394 13.698zm-.49 2.69l33.021 14.921L193.477 86.1l-30.819-16.878 70.444-15.899zm-4.158 55.035l-87.322 23.726-32.531-22.748 84.142-20.546 35.711 19.568zm2.935 1.712l41.582 22.993-91.235 27.639-38.158-26.906 87.811-23.726zm44.762 24.705l48.92 26.906-95.149 32.531-45.496-31.798 91.725-27.639zm51.855 28.618l58.214 32.042-98.818 38.891-55.034-38.402 95.638-32.531zm26.172 120.587l-127.436 58.948-61.15-58.459 121.321-47.697 67.265 47.208zm-64.574-47.942l99.307-39.135 70.199 38.646L357.358 283l-67.264-46.963zm172.197.979l85.854 47.207-104.443 58.949-83.898-58.704 102.487-47.452zm2.691-1.223l83.897-38.891 85.365 38.891L550.591 283l-85.609-47.207zm171.952 1.223l104.444 47.452-81.696 58.704-106.89-58.949 84.142-47.207zm2.691-1.468l68.732-38.646 100.775 39.135L743.824 283l-104.199-47.452zm172.197 1.468L935.1 284.713l-58.948 58.459-129.882-59.193 65.552-46.963zm-.244-2.691l-100.53-38.891 56.991-32.042 96.861 32.531-53.322 38.402zM770.73 161.68l47.941-26.906 92.703 27.639-44.273 31.798-96.371-32.531zm50.876-28.618l40.848-22.993 88.789 23.726-37.179 26.662-92.458-27.395zm43.783-24.705l34.978-19.568 84.875 20.546-31.308 22.748-88.545-23.726zm34.733-22.258l-73.379-17.856 32.287-14.92 71.178 15.898L900.122 86.1zM862.699 51.61l28.373-13.208 68.732 14.187-26.172 14.676-70.933-15.655zm32.042-14.92l24.949-11.496 66.286 12.474-22.992 12.964-68.243-13.942zM884.223 2.446l57.236 10.029-22.014 10.273-58.458-11.252 23.236-9.05zm-27.639 10.762l58.948 11.252-24.949 11.496-60.416-12.475 26.417-10.273zM799.348 2.446l52.833 10.029-26.172 10.273-53.812-11.007 27.151-9.295zm-31.554 10.762l54.057 11.007-29.597 11.741-55.034-12.23 30.574-10.518zM714.717 2.446l48.186 9.784-30.575 10.518-48.92-10.763 31.309-9.539zm-35.956 10.762l49.409 11.007-34.489 11.741-49.898-12.23 34.978-10.518zm-48.92-10.762l44.028 9.784-34.733 10.518-44.273-10.763 34.978-9.539zm-40.114 10.762l44.517 10.763-39.381 11.985-44.517-11.985 39.381-10.763zM545.21 2.446l39.625 9.54-39.38 10.762-39.87-10.763 39.625-9.539zm-4.403 21.525l-44.272 11.985-39.87-11.985 44.028-10.763 40.114 10.763zM460.334 2.446l35.467 9.54-43.783 10.762-35.222-10.518 43.538-9.784zm-12.963 21.28l-49.409 12.23-34.978-11.74 48.92-11.008 35.467 10.518zm-71.668-21.28l31.553 9.54-48.43 10.762-31.064-10.518 47.941-9.784zm-21.524 21.28l-54.546 12.23-30.086-11.74 53.568-11.008 31.064 10.518zm-63.351-21.28l27.639 9.295-53.322 11.007-26.417-10.274 52.1-10.028zm-30.086 21.035l-59.927 12.475-25.193-11.496 58.459-11.252 26.661 10.274zM206.196 2.447l23.727 9.05-58.215 11.252-22.258-10.274 56.746-10.028zM167.55 23.481l-65.308 12.475-20.79-11.496 63.35-11.252 22.748 10.274zM60.171 12.72l61.15-10.273 19.812 9.05-62.862 11.252-18.1-10.029zM6.85 37.913l71.178-12.72 20.79 11.497-73.623 14.187L6.849 37.913zm21.035 14.676l74.114-14.187 23.481 12.964-76.56 15.899-21.035-14.676zM51.61 69.22l77.293-15.899 26.906 14.921-79.983 17.856L51.61 69.22zm26.906 18.834l80.718-18.1 30.819 17.122-83.653 20.546-27.884-19.568zm-70.2 45.985l97.595-23.971 32.532 22.748L35.956 160.7l-27.64-26.661zm29.841 28.618l102.976-27.884 38.402 26.906L71.178 194.21l-33.02-31.553zm34.978 33.51l108.602-32.776 45.495 31.798-114.472 39.135-39.625-38.157zm42.071 39.869l114.961-39.135 55.035 38.402-120.832 47.452-49.164-46.719zM12.23 345.128l151.162-59.437 61.149 58.459-163.147 75.581-49.164-74.603zm116.429 175.377l-65.553-98.573 163.637-75.825 78.516 74.847-176.6 99.551zm100.53-175.621l127.925-59.193 84.142 58.704-133.796 75.336-78.271-74.847zm183.693 175.621l-103.71-98.817 134.04-75.581 107.624 75.336-137.954 99.062zm140.155-100.774l-107.379-75.092 104.933-58.948 107.134 58.948-104.688 75.092zm144.069 100.774l-141.868-99.306 104.689-75.092 136.975 75.581-99.796 98.817zm101.753-100.774l-136.486-75.336 81.94-58.704 130.371 59.193-75.825 74.847zm182.47 100.774L801.06 420.954l75.581-74.847 166.569 75.825-61.881 98.573zm109.821-175.377l-46.71 74.603-165.842-75.581 58.948-58.459 153.604 59.437zM937.057 283l-122.789-47.452 53.567-38.402 116.429 39.136L937.057 283zm48.919-48.675L870.037 195.19l44.272-31.798 110.071 32.776-38.404 38.157zm40.604-40.114l-109.336-32.776 37.179-26.661 103.957 27.884-31.8 31.553zm60.66-60.171l-26.66 26.417-103.466-27.64 31.797-22.748 98.329 23.971zm-99.062-26.661l-84.387-20.547 30.33-17.121 81.449 18.1-27.392 19.568zm29.592-21.28l-80.713-17.856 26.416-14.92L1041.5 69.22l-23.73 16.88zm26.18-18.834l-77.297-15.9 22.992-12.963 74.605 14.187-20.3 14.676zm41.09-29.352l-17.86 12.719-74.11-13.942 20.3-11.496 71.67 12.719zm-72.16-15.165l-63.349-11.252 19.568-9.05 61.641 10.273-17.86 10.029z" fill="url(#paint0_linear)"/><defs><linearGradient id="paint0_linear" x1="861" y1="600" x2="195.918" y2="57.551" gradientUnits="userSpaceOnUse"><stop stop-color="#FFE6E6"/><stop offset=".997" stop-color="#FFEBE0" stop-opacity=".24"/></linearGradient></defs></svg>